<?xml version="1.0" encoding="UTF-8" standalone="no"?>
<svg width="28px" height="32px" viewBox="0 0 28 32" version="1.1" xmlns="http://www.w3.org/2000/svg" xmlns:xlink="http://www.w3.org/1999/xlink">
    <!-- Generator: Sketch 3.6 (26304) - http://www.bohemiancoding.com/sketch -->
    <title>Calendar</title>
    <desc>Created with Sketch.</desc>
    <defs>
        <filter x="-50%" y="-50%" width="200%" height="200%" filterUnits="objectBoundingBox" id="filter-1">
            <feOffset dx="0" dy="2" in="SourceAlpha" result="shadowOffsetOuter1"></feOffset>
            <feGaussianBlur stdDeviation="1" in="shadowOffsetOuter1" result="shadowBlurOuter1"></feGaussianBlur>
            <feColorMatrix values="0 0 0 0 0   0 0 0 0 0   0 0 0 0 0  0 0 0 0.35 0" in="shadowBlurOuter1" type="matrix" result="shadowMatrixOuter1"></feColorMatrix>
            <feMerge>
                <feMergeNode in="shadowMatrixOuter1"></feMergeNode>
                <feMergeNode in="SourceGraphic"></feMergeNode>
            </feMerge>
        </filter>
    </defs>
    <g id="Page-2" stroke="none" stroke-width="1" fill="none" fill-rule="evenodd" filter="url(#filter-1)">
        <g id="Menu" transform="translate(-146.000000, -531.000000)" fill="#FFFFFF">
            <path d="M156,543.666667 L153.333333,543.666667 L153.333333,546.333333 L156,546.333333 L156,543.666667 L156,543.666667 Z M161.333333,543.666667 L158.666667,543.666667 L158.666667,546.333333 L161.333333,546.333333 L161.333333,543.666667 L161.333333,543.666667 Z M166.666667,543.666667 L164,543.666667 L164,546.333333 L166.666667,546.333333 L166.666667,543.666667 L166.666667,543.666667 Z M169.333333,534.333333 L168,534.333333 L168,531.666667 L165.333333,531.666667 L165.333333,534.333333 L154.666667,534.333333 L154.666667,531.666667 L152,531.666667 L152,534.333333 L150.666667,534.333333 C149.186667,534.333333 148.013333,535.533333 148.013333,537 L148,555.666667 C148,557.133333 149.186667,558.333333 150.666667,558.333333 L169.333333,558.333333 C170.8,558.333333 172,557.133333 172,555.666667 L172,537 C172,535.533333 170.8,534.333333 169.333333,534.333333 L169.333333,534.333333 Z M169.333333,555.666667 L150.666667,555.666667 L150.666667,541 L169.333333,541 L169.333333,555.666667 L169.333333,555.666667 Z" id="Calendar"></path>
        </g>
    </g>
</svg>