<?xml version="1.0" encoding="UTF-8" standalone="no"?>
<svg width="258px" height="129px" viewBox="0 0 258 129" version="1.1" xmlns="http://www.w3.org/2000/svg" xmlns:xlink="http://www.w3.org/1999/xlink">
    <!-- Generator: Sketch 3.6 (26304) - http://www.bohemiancoding.com/sketch -->
    <title>Combined Shape</title>
    <desc>Created with Sketch.</desc>
    <defs>
        <filter x="-50%" y="-50%" width="200%" height="200%" filterUnits="objectBoundingBox" id="filter-1">
            <feOffset dx="0" dy="2" in="SourceAlpha" result="shadowOffsetOuter1"></feOffset>
            <feGaussianBlur stdDeviation="2" in="shadowOffsetOuter1" result="shadowBlurOuter1"></feGaussianBlur>
            <feColorMatrix values="0 0 0 0 0   0 0 0 0 0   0 0 0 0 0  0 0 0 0.35 0" in="shadowBlurOuter1" type="matrix" result="shadowMatrixOuter1"></feColorMatrix>
            <feMerge>
                <feMergeNode in="shadowMatrixOuter1"></feMergeNode>
                <feMergeNode in="SourceGraphic"></feMergeNode>
            </feMerge>
        </filter>
    </defs>
    <g id="Page-2" stroke="none" stroke-width="1" fill="none" fill-rule="evenodd" filter="url(#filter-1)">
        <g id="Graph" transform="translate(-12.000000, -107.000000)" fill="#435E78">
            <g id="Data" transform="translate(16.000000, 109.000000)">
                <path d="M5,121 C7.76142375,121 10,118.761424 10,116 C10,113.238576 7.76142375,111 5,111 C2.23857625,111 0,113.238576 0,116 C0,118.761424 2.23857625,121 5,121 Z M65,10 C67.7614237,10 70,7.76142375 70,5 C70,2.23857625 67.7614237,0 65,0 C62.2385763,0 60,2.23857625 60,5 C60,7.76142375 62.2385763,10 65,10 Z M125,96 C127.761424,96 130,93.7614237 130,91 C130,88.2385763 127.761424,86 125,86 C122.238576,86 120,88.2385763 120,91 C120,93.7614237 122.238576,96 125,96 Z M185,76 C187.761424,76 190,73.7614237 190,71 C190,68.2385763 187.761424,66 185,66 C182.238576,66 180,68.2385763 180,71 C180,73.7614237 182.238576,76 185,76 Z M245,121 C247.761424,121 250,118.761424 250,116 C250,113.238576 247.761424,111 245,111 C242.238576,111 240,113.238576 240,116 C240,118.761424 242.238576,121 245,121 Z" id="Combined-Shape"></path>
            </g>
        </g>
    </g>
</svg>