<?xml version="1.0" encoding="UTF-8" standalone="no"?>
<svg width="32px" height="32px" viewBox="0 0 32 32" version="1.1" xmlns="http://www.w3.org/2000/svg" xmlns:xlink="http://www.w3.org/1999/xlink">
    <!-- Generator: Sketch 3.6 (26304) - http://www.bohemiancoding.com/sketch -->
    <title>Ranking</title>
    <desc>Created with Sketch.</desc>
    <defs>
        <filter x="-50%" y="-50%" width="200%" height="200%" filterUnits="objectBoundingBox" id="filter-1">
            <feOffset dx="0" dy="2" in="SourceAlpha" result="shadowOffsetOuter1"></feOffset>
            <feGaussianBlur stdDeviation="2" in="shadowOffsetOuter1" result="shadowBlurOuter1"></feGaussianBlur>
            <feColorMatrix values="0 0 0 0 0   0 0 0 0 0   0 0 0 0 0  0 0 0 0.35 0" in="shadowBlurOuter1" type="matrix" result="shadowMatrixOuter1"></feColorMatrix>
            <feMerge>
                <feMergeNode in="shadowMatrixOuter1"></feMergeNode>
                <feMergeNode in="SourceGraphic"></feMergeNode>
            </feMerge>
        </filter>
    </defs>
    <g id="Page-2" stroke="none" stroke-width="1" fill="none" fill-rule="evenodd" filter="url(#filter-1)">
        <g id="Menu" transform="translate(-272.000000, -532.000000)" fill="#FFFFFF">
            <path d="M286.849315,555.822919 L286.849315,550.781262 C284.053796,550.327841 281.795913,547.733375 281.162998,544.355779 C281.032459,544.36577 280.90043,544.370864 280.767123,544.370864 C278.134314,544.370864 276,542.383745 276,539.932508 C276,537.481272 278.134314,535.494152 280.767123,535.494152 C280.840294,535.494152 280.91308,535.495687 280.985445,535.498724 L280.985445,534 L294.464897,534 L294.464897,535.551445 C294.714907,535.513747 294.971434,535.494152 295.232877,535.494152 C297.865686,535.494152 300,537.481272 300,539.932508 C300,542.383745 297.865686,544.370864 295.232877,544.370864 C294.913672,544.370864 294.601795,544.341655 294.300161,544.28595 C293.701662,547.607397 291.5344,550.186 288.821918,550.740784 L288.821918,555.822919 L292.955323,556.971087 C293.396102,557.093526 293.38623,557.192782 292.939915,557.192782 L282.731318,557.192782 C282.282029,557.192782 282.270272,557.094876 282.71591,556.971087 L286.849315,555.822919 Z M294.464897,536.953687 C294.551709,536.949223 294.63929,536.946956 294.727549,536.946956 C296.899701,536.946956 298.660578,538.320169 298.660578,540.014113 C298.660578,541.708058 296.899701,543.081271 294.727549,543.081271 C294.63264,543.081271 294.538517,543.078649 294.445291,543.073494 C294.458283,542.85975 294.464897,542.643777 294.464897,542.425872 L294.464897,536.953687 Z M280.985445,536.978705 C278.935755,537.083688 277.315068,538.408433 277.315068,540.027225 C277.315068,541.651227 278.946202,542.979286 281.005246,543.076721 C280.992126,542.861927 280.985445,542.644877 280.985445,542.425872 L280.985445,536.978705 Z" id="Ranking"></path>
        </g>
    </g>
</svg>